<?xml version="1.0" encoding="utf-8"?>
<!-- Generator: Adobe Illustrator 15.1.0, SVG Export Plug-In  -->
<!DOCTYPE svg PUBLIC "-//W3C//DTD SVG 1.1//EN" "http://www.w3.org/Graphics/SVG/1.1/DTD/svg11.dtd" [
	<!ENTITY ns_flows "http://ns.adobe.com/Flows/1.0/">
]>
<svg version="1.1"
	 xmlns="http://www.w3.org/2000/svg" xmlns:xlink="http://www.w3.org/1999/xlink" xmlns:a="http://ns.adobe.com/AdobeSVGViewerExtensions/3.0/"
	 x="0px" y="0px" width="200px" height="143px" viewBox="0.334 0 200 143" enable-background="new 0.334 0 200 143"
	 xml:space="preserve">
<defs>
</defs>
<path d="M200.334,136.309c0,3.68-3.01,6.691-6.688,6.691H7.022c-3.678,0-6.688-3.012-6.688-6.691V6.692
	c0-3.681,3.01-6.691,6.688-6.691h186.623c3.679,0,6.688,3.011,6.688,6.691V136.309z"/>
<linearGradient id="SVGID_1_" gradientUnits="userSpaceOnUse" x1="100.3335" y1="9.765625e-004" x2="100.3335" y2="97.5576">
	<stop  offset="0" style="stop-color:#8B8B8B"/>
	<stop  offset="1" style="stop-color:#353535"/>
</linearGradient>
<path fill="url(#SVGID_1_)" d="M193.646,0.001H7.022c-3.678,0-6.688,3.011-6.688,6.691l0.75,90.62
	c33.877,1.675,72.648-5.4,113.742-15.675c31.572-7.89,60.564-18.65,85.509-31.111V6.692C200.334,3.012,197.324,0.001,193.646,0.001z
	"/>
<path opacity="0.1" fill="#010101" d="M114.825,81.637C73.732,91.912,33.877,99.232,0,97.557l0.334,38.752
	c0,3.68,3.01,6.691,6.688,6.691h186.623c3.679,0,6.688-3.012,6.688-6.691V50.526C175.39,62.987,146.397,73.748,114.825,81.637z"/>
<path d="M193.654,2.833c2.127,0,3.857,1.683,3.857,3.752v129.83c0,2.068-1.73,3.753-3.857,3.753H7.031
	c-2.127,0-3.857-1.685-3.857-3.753V6.584c0-2.069,1.73-3.752,3.857-3.752H193.654 M193.654,0H7.031C3.353,0,0.343,2.963,0.343,6.584
	v129.83c0,3.622,3.01,6.586,6.688,6.586h186.623c3.68,0,6.689-2.964,6.689-6.586V6.584C200.344,2.963,197.334,0,193.654,0L193.654,0
	z"/>
<g>
	<rect x="3.201" y="116.123" fill="#9D2262" width="194.337" height="20.169"/>
</g>
<g>
	<path fill="#C8C8C8" d="M67.562,129.716l-0.687,1.73H64.13l3.828-9.953h2.825l3.748,9.953h-2.758l-0.647-1.73H67.562z
		 M69.37,124.57h-0.026l-1.069,3.168h2.151L69.37,124.57z"/>
	<path fill="#C8C8C8" d="M83.243,127.921h0.026l2.085-6.428h2.059l1.954,6.428h0.026l1.874-6.428h2.692l-3.181,9.953h-2.64
		l-1.743-5.768h-0.026l-1.953,5.768h-2.626l-2.97-9.953h2.692L83.243,127.921z"/>
	<path fill="#C8C8C8" d="M101.67,129.716l-0.687,1.73h-2.745l3.828-9.953h2.825l3.748,9.953h-2.758l-0.647-1.73H101.67z
		 M103.478,124.57h-0.026l-1.069,3.168h2.151L103.478,124.57z"/>
	<path fill="#C8C8C8" d="M122.248,131.447h-3.221l-2.441-3.828h-0.027v3.828h-2.586v-9.953h3.867c1.967,0,3.457,0.938,3.457,3.063
		c0,1.373-0.765,2.561-2.178,2.813L122.248,131.447z M116.559,125.955h0.252c0.844,0,1.795-0.158,1.795-1.24s-0.951-1.24-1.795-1.24
		h-0.252V125.955z"/>
	<path fill="#C8C8C8" d="M127.475,121.494h3.67c2.771,0,5.055,2.178,5.055,4.977s-2.297,4.977-5.055,4.977h-3.67V121.494z
		 M130.063,129.255h0.58c1.545,0,2.864-0.846,2.864-2.785c0-1.781-1.175-2.785-2.837-2.785h-0.607V129.255z"/>
</g>
<path display="none" fill="#FFFFFF" d="M7.046,74.786h7.409l5.313,27.365h0.773l5.313-27.365h7.984l5.314,27.369h0.776l5.332-27.369
	h7.409l-7.858,34.462H34.335l-4.372-23.69l-4.352,23.69H14.929L7.046,74.786z"/>
<path display="none" fill="#FFFFFF" d="M56.744,109.248V74.786h7.06v34.462H56.744z"/>
<path display="none" fill="#FFFFFF" d="M70.222,109.248V74.786h11.1l9.753,25.779h0.773V74.786h7.059v34.462H88.157l-10.103-25.78
	h-0.773v25.78H70.222z"/>
<path display="none" fill="#FFFFFF" d="M105.302,109.248V74.786h11.1l9.753,25.779h0.773V74.786h7.06v34.462h-10.751l-10.103-25.78
	h-0.773v25.78H105.302z"/>
<path display="none" fill="#FFFFFF" d="M140.382,109.248V74.786h22.376v6.633h-15.416v7.66h12.372v6.412h-12.372v7.122h15.416v6.635
	H140.382z"/>
<path display="none" fill="#FFFFFF" d="M167.904,109.248V74.786h13.469c4.215,0,7.311,0.897,9.286,2.695
	c1.975,1.797,2.962,4.711,2.962,8.742c0,4.455-1.692,7.733-5.077,9.831l4.903,13.193h-7.658l-4.091-11.146h-6.735v11.146H167.904z
	 M174.963,91.566h6.536c3.309,0,4.964-1.748,4.964-5.245c0-3.332-1.688-4.999-5.064-4.999h-6.436V91.566z"/>
<path display="none" fill="#FFFFFF" d="M6.844,58.499c0-4.221,0.755-7.259,2.264-9.113c1.509-1.854,4.075-2.782,7.7-2.782
	c1.141,0,2.43,0.08,3.868,0.239c1.438,0.16,2.596,0.322,3.476,0.486l1.301,0.264l-0.143,4c-2.816-0.283-5.306-0.424-7.468-0.424
	c-0.071,0-0.148,0-0.232,0c-2.186,0-3.663,0.49-4.429,1.467c-0.767,0.977-1.15,2.931-1.15,5.863c0,2.986,0.353,4.998,1.059,6.036
	c0.706,1.037,2.161,1.556,4.367,1.556l3.023-0.132v-3.975h-2.246v-4.123h7.219v11.903c-3.482,0.506-6.304,0.766-8.467,0.777
	c-3.767,0-6.399-0.979-7.896-2.938C7.593,65.646,6.844,62.611,6.844,58.499z"/>
<path display="none" fill="#FFFFFF" d="M28.802,70.131V47.013h9.624c3.013,0,5.224,0.603,6.636,1.807
	c1.412,1.206,2.117,3.161,2.117,5.867c0,2.989-1.209,5.187-3.629,6.594l3.504,8.851h-5.472l-2.923-7.477h-4.813v7.477H28.802z
	 M33.847,58.27h4.67c2.364,0,3.547-1.173,3.547-3.519c0-2.235-1.206-3.353-3.618-3.353h-4.599V58.27z"/>
<path display="none" fill="#FFFFFF" d="M49.281,58.745c0-4.091,0.778-7.137,2.335-9.139c1.556-2.002,4.209-3.002,7.958-3.002
	s6.402,1,7.958,3.002s2.335,5.047,2.335,9.139c0,4.046-0.772,7.024-2.317,8.933c-1.545,1.909-4.204,2.864-7.977,2.864
	c-3.773,0-6.432-0.957-7.977-2.872C50.053,65.755,49.281,62.78,49.281,58.745z M54.467,58.745c0,2.624,0.359,4.504,1.079,5.64
	c0.719,1.137,2.062,1.705,4.028,1.705c1.966,0,3.309-0.571,4.028-1.713c0.719-1.143,1.078-3.02,1.078-5.632
	c0-2.667-0.365-4.616-1.096-5.846c-0.731-1.23-2.068-1.845-4.011-1.845s-3.28,0.615-4.011,1.845
	C54.833,54.128,54.467,56.077,54.467,58.745z"/>
<path display="none" fill="#FFFFFF" d="M72.664,62.425V47.013h5.044v15.373c0,1.273,0.383,2.171,1.15,2.693s1.851,0.783,3.253,0.783
	c2.947,0,4.42-1.159,4.42-3.476V47.013h5.044v15.413c0,2.792-0.785,4.824-2.353,6.095c-1.568,1.271-3.936,1.906-7.103,1.906
	s-5.535-0.635-7.103-1.906C73.449,67.25,72.664,65.217,72.664,62.425z"/>
<path display="none" fill="#FFFFFF" d="M95.46,70.131V47.013h9.126c5.894,0,8.841,2.688,8.841,8.066c0,2.7-0.749,4.782-2.246,6.246
	c-1.497,1.465-3.696,2.197-6.595,2.197h-4.082v6.61H95.46z M100.504,59.071h4.046c2.507,0,3.761-1.331,3.761-3.992
	c0-2.411-1.254-3.616-3.761-3.616h-4.046V59.071z"/>
<path display="none" fill="#FFFFFF" d="M121.052,51.463v-4.45h18.252v4.45h-6.577v18.668h-5.044V51.463H121.052z"/>
<path display="none" fill="#FFFFFF" d="M140.639,70.131V47.013h15.989v4.45h-11.016V56.6h8.841v4.303h-8.841v4.778h11.016v4.45
	H140.639z"/>
<path display="none" fill="#FFFFFF" d="M158.516,53.376c0-2.182,0.796-3.855,2.39-5.022c1.594-1.167,3.783-1.75,6.567-1.75
	c0.829,0,1.881,0.078,3.154,0.235c1.273,0.156,2.342,0.305,3.207,0.445l1.279,0.227l-0.39,4.087
	c-3.424-0.362-5.841-0.543-7.251-0.543c-2.656,0-3.984,0.752-3.984,2.256c0,0.724,0.33,1.287,0.991,1.689
	c0.661,0.4,2.053,0.908,4.172,1.522c2.715,0.813,4.557,1.688,5.524,2.627c0.967,0.939,1.451,2.396,1.451,4.373
	c0,2.27-0.8,4.007-2.399,5.212c-1.6,1.205-3.738,1.808-6.416,1.808c-0.829,0-1.878-0.078-3.146-0.235s-2.334-0.31-3.199-0.461
	l-1.297-0.243l0.513-4.088c3.011,0.385,5.375,0.576,7.094,0.576c1.369,0,2.358-0.188,2.966-0.568
	c0.607-0.378,0.911-1.007,0.911-1.885c0-0.725-0.304-1.296-0.911-1.713s-1.787-0.862-3.538-1.334
	c-2.849-0.767-4.843-1.673-5.981-2.717C159.084,56.829,158.516,55.331,158.516,53.376z"/>
<path display="none" fill="#FFFFFF" d="M175.571,51.463v-4.45h18.252v4.45h-6.577v18.668h-5.044V51.463H175.571z"/>
<path display="none" fill="#FFFFFF" d="M6.855,83.98V58.193h4.754v25.718c0,2.129,0.36,3.633,1.083,4.506
	c0.723,0.873,1.745,1.309,3.066,1.309c2.777,0,4.166-1.938,4.166-5.814V58.193h4.753V83.98c0,4.671-0.739,8.068-2.217,10.196
	c-1.479,2.125-3.71,3.189-6.694,3.189c-2.985,0-5.215-1.064-6.694-3.189C7.594,92.048,6.855,88.651,6.855,83.98z"/>
<path display="none" fill="#FFFFFF" d="M28.2,96.872V58.193h7.475l6.567,28.933h0.521V58.193h4.753v38.678h-7.24l-6.803-28.933
	h-0.521v28.933H28.2z"/>
<path display="none" fill="#FFFFFF" d="M51.375,96.872V58.193h7.575l4.636,27.81l4.654-27.81h7.508v38.678h-4.754V67.938
	l-0.488,0.014l-4.51,27.262l-4.76-0.021l-4.563-27.267h-0.546v28.944H51.375z"/>
<path display="none" fill="#FFFFFF" d="M79.606,96.872V58.193h4.754v38.678H79.606z"/>
<path display="none" fill="#FFFFFF" d="M86.858,68.84c0-3.65,0.75-6.451,2.252-8.402c1.502-1.952,3.566-2.929,6.19-2.929
	c0.781,0,1.771,0.132,2.972,0.394c1.199,0.261,2.207,0.511,3.021,0.744l1.206,0.379l-0.367,6.839
	c-3.227-0.607-5.505-0.91-6.833-0.91c-2.504,0-3.755,1.259-3.755,3.776c0,1.212,0.311,2.154,0.934,2.825
	c0.623,0.669,1.934,1.519,3.932,2.546c2.558,1.359,4.293,2.825,5.205,4.396s1.368,4.008,1.368,7.315c0,3.796-0.754,6.703-2.262,8.72
	c-1.506,2.016-3.522,3.024-6.045,3.024c-0.782,0-1.771-0.132-2.964-0.394c-1.195-0.262-2.2-0.518-3.016-0.771l-1.222-0.406
	l0.483-6.84c2.837,0.645,5.065,0.966,6.685,0.966c1.291,0,2.223-0.316,2.795-0.951c0.571-0.634,0.859-1.687,0.859-3.155
	c0-1.213-0.288-2.167-0.859-2.865c-0.573-0.698-1.684-1.443-3.335-2.232c-2.685-1.285-4.563-2.801-5.636-4.547
	C87.395,74.617,86.858,72.11,86.858,68.84z"/>
<path display="none" fill="#FFFFFF" d="M104.154,68.84c0-3.65,0.75-6.451,2.252-8.402c1.501-1.952,3.565-2.929,6.189-2.929
	c0.781,0,1.771,0.132,2.973,0.394c1.199,0.261,2.207,0.511,3.021,0.744l1.205,0.379l-0.365,6.839
	c-3.229-0.607-5.506-0.91-6.834-0.91c-2.503,0-3.755,1.259-3.755,3.776c0,1.212,0.31,2.154,0.935,2.825
	c0.624,0.669,1.933,1.519,3.934,2.546c2.557,1.359,4.291,2.825,5.205,4.396c0.91,1.571,1.367,4.008,1.367,7.315
	c0,3.796-0.756,6.703-2.262,8.72c-1.506,2.016-3.525,3.024-6.045,3.024c-0.783,0-1.772-0.132-2.966-0.394
	c-1.196-0.262-2.2-0.518-3.016-0.771l-1.222-0.406l0.483-6.84c2.837,0.645,5.067,0.966,6.683,0.966c1.293,0,2.223-0.316,2.797-0.951
	c0.574-0.634,0.857-1.687,0.857-3.155c0-1.213-0.283-2.167-0.857-2.865s-1.682-1.443-3.334-2.232
	c-2.685-1.285-4.564-2.801-5.637-4.547C104.691,74.617,104.154,72.11,104.154,68.84z"/>
<path display="none" fill="#FFFFFF" d="M121.115,96.872l5.178-38.678h9.1l5.133,38.678h-4.729l-0.863-6.514h-8.217l-0.869,6.514
	H121.115z M127.707,82.912h6.24l-2.334-17.601h-1.561L127.707,82.912z"/>
<path display="none" fill="#FFFFFF" d="M142.713,96.872V58.193h9.102c2.268,0,4.049,0.799,5.338,2.396
	c1.291,1.597,1.938,4.083,1.938,7.461c0,2.447-0.191,4.325-0.574,5.63c-0.385,1.305-1.043,2.439-1.977,3.4
	c1.08,0.78,1.854,1.83,2.33,3.145c0.471,1.316,0.707,3.208,0.707,5.678c0,3.721-0.666,6.479-1.998,8.274
	c-1.334,1.797-3.205,2.693-5.611,2.693H142.713z M147.396,73.988h4.234c1.771,0,2.648-1.518,2.637-4.555
	c0.012-2.693-0.877-4.04-2.67-4.04h-4.201V73.988z M147.396,89.672h4.334c1.01,0,1.754-0.343,2.234-1.03
	c0.482-0.686,0.725-1.808,0.725-3.362c0-2.856-0.986-4.284-2.959-4.284h-4.334V89.672z"/>
<path display="none" fill="#FFFFFF" d="M162.596,96.872V58.193h4.752v31.232h8.568v7.446H162.596z"/>
<path display="none" fill="#FFFFFF" d="M178.412,96.872V58.193h15.068v7.445H183.1v8.595h8.332v7.199H183.1v7.992h10.381v7.446
	H178.412z"/>
<path display="none" fill="#FFFFFF" d="M7.057,97.312V58.633h7.325c2.292,0,3.976,1.008,5.05,3.024
	c1.074,2.017,1.611,5.289,1.611,9.813c0,5.001-0.921,8.679-2.762,11.033l2.667,14.809h-4.165l-2.225-12.508h-3.663v12.508H7.057z
	 M10.896,77.466h3.554c1.8,0,2.7-1.961,2.7-5.885c0-3.742-0.918-5.612-2.754-5.612h-3.5V77.466z"/>
<path display="none" fill="#FFFFFF" d="M23.359,97.312V58.633h12.169v7.446h-8.384v8.594h6.729v7.201h-6.729v7.992h8.384v7.445
	H23.359z"/>
<path display="none" fill="#FFFFFF" d="M37.138,77.96c0-7.319,0.542-12.483,1.628-15.496c1.085-3.011,2.948-4.516,5.589-4.516
	c0.706,0,1.517,0.132,2.435,0.396s1.662,0.533,2.231,0.808l0.869,0.438l-0.108,6.789c-2.243-0.528-3.867-0.794-4.871-0.794
	c-1.022,0-1.795,0.329-2.32,0.986c-0.524,0.657-0.906,1.871-1.146,3.641c-0.24,1.769-0.36,4.353-0.36,7.748
	c0,4.891,0.253,8.18,0.76,9.867c0.506,1.689,1.569,2.533,3.188,2.533c0.407,0,1.008-0.074,1.804-0.221
	c0.796-0.145,1.483-0.291,2.062-0.438l0.882-0.191l0.081,6.952c-2.207,1.005-4.043,1.515-5.508,1.534
	c-2.795,0-4.696-1.561-5.704-4.682C37.642,90.197,37.138,85.076,37.138,77.96z"/>
<path display="none" fill="#FFFFFF" d="M51.215,78.261c0-6.843,0.592-11.941,1.777-15.29c1.185-3.349,3.204-5.022,6.057-5.022
	c2.854,0,4.873,1.674,6.057,5.022c1.185,3.348,1.777,8.446,1.777,15.29c0,6.77-0.588,11.752-1.764,14.945
	c-1.176,3.195-3.199,4.791-6.071,4.791c-2.871,0-4.895-1.601-6.07-4.803C51.803,89.992,51.215,85.014,51.215,78.261z M55.163,78.261
	c0,4.389,0.273,7.533,0.82,9.438c0.547,1.903,1.569,2.854,3.066,2.854c1.497,0,2.519-0.957,3.066-2.868
	c0.547-1.911,0.821-5.054,0.821-9.423c0-4.463-0.278-7.723-0.834-9.781c-0.556-2.057-1.574-3.086-3.053-3.086
	s-2.496,1.03-3.052,3.086C55.441,70.539,55.163,73.798,55.163,78.261z"/>
<path display="none" fill="#FFFFFF" d="M69.172,97.312V58.633h6.118l3.744,27.813l3.758-27.813h6.064v38.679h-3.84V68.379
	l-0.395,0.015l-3.641,27.26l-3.846-0.02l-3.684-27.266h-0.441v28.944H69.172z"/>
<path display="none" fill="#FFFFFF" d="M91.972,97.312V58.633h6.119l3.743,27.813l3.758-27.813h6.064v38.679h-3.838V68.379
	l-0.395,0.015l-3.642,27.26l-3.845-0.02l-3.685-27.266h-0.441v28.944H91.972z"/>
<path display="none" fill="#FFFFFF" d="M114.771,97.312V58.633h12.17v7.446h-8.385v8.594h6.729v7.201h-6.729v7.992h8.385v7.445
	H114.771z"/>
<path display="none" fill="#FFFFFF" d="M129.379,97.312V58.633h6.037l5.303,28.936h0.422V58.633h3.838v38.679h-5.846l-5.494-28.933
	h-0.422v28.933H129.379z"/>
<path display="none" fill="#FFFFFF" d="M148.096,97.312V58.633h6.307c1.629,0,2.973,0.356,4.031,1.068
	c1.057,0.711,1.879,1.879,2.461,3.504c0.584,1.624,0.986,3.526,1.207,5.708c0.223,2.181,0.334,4.958,0.334,8.335
	c0,3.559-0.104,6.475-0.307,8.746c-0.203,2.272-0.588,4.316-1.152,6.131c-0.566,1.816-1.387,3.135-2.463,3.957
	s-2.445,1.23-4.111,1.23H148.096z M151.881,89.976h2.521c0.725,0,1.342-0.195,1.852-0.587c0.512-0.394,0.912-0.907,1.195-1.549
	c0.285-0.639,0.506-1.536,0.664-2.696c0.158-1.158,0.26-2.317,0.307-3.477c0.045-1.158,0.066-2.631,0.066-4.42
	c0-1.461-0.014-2.654-0.039-3.587c-0.027-0.93-0.088-1.864-0.178-2.804c-0.09-0.939-0.229-1.68-0.414-2.218
	c-0.186-0.539-0.432-1.022-0.738-1.451c-0.309-0.429-0.684-0.739-1.127-0.931c-0.443-0.191-0.973-0.288-1.588-0.288h-2.521V89.976z"
	/>
<path display="none" fill="#FFFFFF" d="M164.736,97.312V58.633h12.17v7.446h-8.385v8.594h6.729v7.201h-6.729v7.992h8.385v7.445
	H164.736z"/>
<path display="none" fill="#FFFFFF" d="M179.342,97.312V58.633h6.309c1.629,0,2.971,0.356,4.029,1.068
	c1.059,0.711,1.879,1.879,2.463,3.504c0.584,1.624,0.986,3.526,1.207,5.708c0.223,2.181,0.332,4.958,0.332,8.335
	c0,3.559-0.102,6.475-0.305,8.746c-0.203,2.272-0.588,4.316-1.154,6.131c-0.564,1.816-1.385,3.135-2.461,3.957
	s-2.447,1.23-4.111,1.23H179.342z M183.127,89.976h2.523c0.725,0,1.342-0.195,1.854-0.587c0.51-0.394,0.908-0.907,1.193-1.549
	c0.285-0.639,0.506-1.536,0.664-2.696c0.158-1.158,0.26-2.317,0.305-3.477c0.045-1.158,0.068-2.631,0.068-4.42
	c0-1.461-0.014-2.654-0.041-3.587c-0.027-0.93-0.086-1.864-0.176-2.804c-0.092-0.939-0.229-1.68-0.414-2.218
	c-0.186-0.539-0.432-1.022-0.74-1.451c-0.307-0.429-0.682-0.739-1.125-0.931c-0.443-0.191-0.973-0.288-1.588-0.288h-2.523V89.976z"
	/>
<path fill="#FFFFFF" d="M6.897,97.313V58.634h12.756c3.179,0,5.673,0.798,7.481,2.396c1.809,1.597,2.714,4.083,2.714,7.461
	c0,2.448-0.269,4.325-0.806,5.631c-0.538,1.305-1.46,2.438-2.768,3.4c1.513,0.78,2.601,1.828,3.263,3.145s0.993,3.209,0.993,5.678
	c0,3.721-0.933,6.479-2.801,8.275c-1.866,1.795-4.488,2.693-7.862,2.693H6.897z M13.465,74.428h5.931
	c2.479,0,3.711-1.517,3.696-4.555c0.015-2.693-1.232-4.041-3.743-4.041h-5.885V74.428z M13.465,90.114h6.072
	c1.413,0,2.456-0.342,3.131-1.031c0.674-0.686,1.011-1.807,1.011-3.361c0-2.857-1.38-4.285-4.143-4.285h-6.072V90.114z"/>
<path fill="#FFFFFF" d="M34.76,97.313V58.634h21.113v7.445H41.327v8.596h11.676v7.198H41.327v7.994h14.546v7.445H34.76z"/>
<path fill="#FFFFFF" d="M58.175,69.28c0-3.65,1.052-6.45,3.156-8.402c2.105-1.952,4.997-2.929,8.673-2.929
	c1.095,0,2.483,0.131,4.166,0.394c1.681,0.261,3.093,0.509,4.235,0.744l1.689,0.379l-0.514,6.839
	c-4.522-0.606-7.714-0.91-9.576-0.91c-3.508,0-5.262,1.259-5.262,3.776c0,1.212,0.437,2.151,1.309,2.823
	c0.873,0.671,2.71,1.521,5.51,2.547c3.584,1.359,6.016,2.826,7.293,4.396c1.279,1.57,1.917,4.01,1.917,7.314
	c0,3.799-1.058,6.703-3.169,8.721c-2.112,2.016-4.935,3.023-8.472,3.023c-1.095,0-2.48-0.131-4.154-0.393
	c-1.673-0.262-3.083-0.52-4.225-0.771l-1.713-0.406l0.678-6.84c3.975,0.645,7.098,0.965,9.367,0.965
	c1.809,0,3.115-0.316,3.917-0.949c0.802-0.635,1.204-1.688,1.204-3.156c0-1.211-0.402-2.168-1.204-2.865
	c-0.803-0.697-2.36-1.441-4.673-2.232c-3.763-1.285-6.396-2.801-7.899-4.547C58.927,75.057,58.175,72.549,58.175,69.28z"/>
<path fill="#FFFFFF" d="M80.506,66.079v-7.445h24.105v7.445h-8.687v31.234h-6.663V66.079H80.506z"/>
<path fill="#FFFFFF" d="M112.344,97.313V58.634h12.758c3.18,0,5.672,0.798,7.482,2.396c1.807,1.597,2.709,4.083,2.709,7.461
	c0,2.448-0.268,4.325-0.805,5.631c-0.537,1.305-1.459,2.438-2.766,3.4c1.512,0.78,2.6,1.828,3.264,3.145
	c0.66,1.316,0.99,3.209,0.99,5.678c0,3.721-0.934,6.479-2.799,8.275c-1.869,1.795-4.49,2.693-7.863,2.693H112.344z M118.91,74.428
	h5.934c2.479,0,3.713-1.517,3.695-4.555c0.018-2.693-1.23-4.041-3.742-4.041h-5.887V74.428z M118.91,90.114h6.076
	c1.41,0,2.453-0.342,3.129-1.031c0.676-0.686,1.014-1.807,1.014-3.361c0-2.857-1.381-4.285-4.143-4.285h-6.076V90.114z"/>
<path fill="#FFFFFF" d="M139.303,84.42V58.634h6.662v25.72c0,2.129,0.508,3.631,1.518,4.504c1.014,0.875,2.443,1.311,4.297,1.311
	c3.891,0,5.836-1.939,5.836-5.814v-25.72h6.664V84.42c0,4.67-1.037,8.07-3.109,10.197c-2.07,2.125-5.197,3.189-9.379,3.189
	c-4.184,0-7.311-1.064-9.381-3.189C140.338,92.491,139.303,89.09,139.303,84.42z"/>
<path fill="#FFFFFF" d="M166.945,58.634h7.391l5.934,13.495l5.883-13.495h7.369l-9.887,22.199v16.48h-6.662V80.779L166.945,58.634z"
	/>
<path display="none" fill="#FFFFFF" d="M7.021,109.445V82.242h7.282c2.279,0,3.952,0.709,5.02,2.127
	c1.068,1.419,1.602,3.72,1.602,6.901c0,3.517-0.916,6.104-2.746,7.759l2.651,10.416h-4.14l-2.212-8.799h-3.641v8.799H7.021z
	 M10.838,95.487h3.533c1.789,0,2.684-1.381,2.684-4.14c0-2.631-0.913-3.945-2.737-3.945h-3.479V95.487z"/>
<path display="none" fill="#FFFFFF" d="M23.337,109.445V82.242h12.097v5.236H27.1v6.045h6.689v5.063H27.1v5.622h8.334v5.236H23.337z
	"/>
<path display="none" fill="#FFFFFF" d="M37.146,95.833c0-5.145,0.539-8.777,1.618-10.895c1.079-2.118,2.931-3.178,5.556-3.178
	c0.701,0,1.508,0.093,2.42,0.279c0.912,0.188,1.652,0.376,2.218,0.568l0.863,0.309l-0.108,4.774
	c-2.23-0.372-3.844-0.559-4.841-0.559c-1.016,0-1.785,0.231-2.306,0.692c-0.521,0.462-0.901,1.315-1.14,2.561
	s-0.357,3.061-0.357,5.447c0,3.441,0.252,5.753,0.755,6.94s1.56,1.781,3.169,1.781c0.405,0,1.002-0.051,1.794-0.154
	c0.791-0.103,1.474-0.205,2.05-0.309l0.876-0.136l0.081,4.892c-2.194,0.705-4.019,1.064-5.475,1.078
	c-2.778,0-4.668-1.098-5.671-3.292S37.146,100.838,37.146,95.833z"/>
<path display="none" fill="#FFFFFF" d="M51.25,96.044c0-4.813,0.589-8.396,1.767-10.751s3.185-3.533,6.021-3.533
	s4.843,1.179,6.021,3.533s1.767,5.938,1.767,10.751c0,4.762-0.584,8.267-1.753,10.512c-1.169,2.245-3.181,3.369-6.035,3.369
	c-2.854,0-4.866-1.127-6.035-3.378C51.834,104.294,51.25,100.792,51.25,96.044z M55.174,96.044c0,3.087,0.272,5.3,0.816,6.638
	c0.544,1.337,1.56,2.007,3.048,2.007c1.488,0,2.503-0.673,3.047-2.016c0.544-1.346,0.816-3.555,0.816-6.629
	c0-3.138-0.276-5.43-0.829-6.878c-0.553-1.445-1.564-2.17-3.034-2.17c-1.47,0-2.481,0.725-3.034,2.17
	C55.45,90.615,55.174,92.907,55.174,96.044z"/>
<path display="none" fill="#FFFFFF" d="M69.211,109.445V82.242h6.082l3.722,19.559l3.736-19.559h6.028v27.203h-3.816V89.094
	l-0.392,0.011l-3.62,19.173l-3.822-0.015l-3.663-19.176h-0.438v20.357H69.211z"/>
<path display="none" fill="#FFFFFF" d="M91.986,109.445V82.242h6.082l3.722,19.559l3.736-19.559h6.028v27.203h-3.816V89.094
	l-0.392,0.011l-3.62,19.173l-3.822-0.015l-3.663-19.176h-0.438v20.357H91.986z"/>
<path display="none" fill="#FFFFFF" d="M114.762,109.445V82.242h12.097v5.236h-8.334v6.045h6.688v5.063h-6.688v5.622h8.334v5.236
	H114.762z"/>
<path display="none" fill="#FFFFFF" d="M129.393,109.445V82.242h6.001l5.272,20.349h0.418V82.242h3.816v27.203h-5.812l-5.462-20.351
	h-0.418v20.351H129.393z"/>
<path display="none" fill="#FFFFFF" d="M148.108,109.445V82.242h6.271c1.618,0,2.953,0.251,4.005,0.752
	c1.052,0.5,1.868,1.321,2.447,2.464c0.58,1.142,0.98,2.48,1.2,4.014c0.221,1.533,0.33,3.487,0.33,5.862
	c0,2.501-0.101,4.553-0.303,6.149c-0.202,1.599-0.585,3.035-1.146,4.313c-0.562,1.278-1.378,2.204-2.447,2.781
	c-1.07,0.578-2.433,0.868-4.086,0.868H148.108z M151.871,104.285h2.509c0.719,0,1.332-0.137,1.841-0.415
	c0.508-0.275,0.903-0.638,1.187-1.086c0.283-0.45,0.503-1.082,0.66-1.896c0.158-0.814,0.259-1.631,0.304-2.445
	c0.045-0.815,0.067-1.852,0.067-3.108c0-1.026-0.014-1.868-0.04-2.522c-0.027-0.654-0.086-1.313-0.176-1.974
	c-0.09-0.659-0.227-1.181-0.411-1.56s-0.43-0.719-0.735-1.02s-0.679-0.52-1.119-0.654s-0.966-0.202-1.577-0.202h-2.509V104.285z"/>
<path display="none" fill="#FFFFFF" d="M164.762,109.445V82.242h12.097v5.236h-8.334v6.045h6.688v5.063h-6.688v5.622h8.334v5.236
	H164.762z"/>
<path display="none" fill="#FFFFFF" d="M179.393,109.445V82.242h6.271c1.618,0,2.953,0.251,4.005,0.752
	c1.052,0.5,1.868,1.321,2.447,2.464c0.58,1.142,0.98,2.48,1.2,4.014c0.221,1.533,0.331,3.487,0.331,5.862
	c0,2.501-0.102,4.553-0.304,6.149c-0.202,1.599-0.585,3.035-1.146,4.313c-0.562,1.278-1.378,2.204-2.447,2.781
	c-1.07,0.578-2.432,0.868-4.086,0.868H179.393z M183.155,104.285h2.508c0.719,0,1.332-0.137,1.84-0.415
	c0.509-0.275,0.904-0.638,1.188-1.086c0.283-0.45,0.504-1.082,0.66-1.896c0.157-0.814,0.259-1.631,0.304-2.445
	c0.045-0.815,0.067-1.852,0.067-3.108c0-1.026-0.013-1.868-0.04-2.522s-0.086-1.313-0.175-1.974
	c-0.091-0.659-0.228-1.181-0.412-1.56c-0.184-0.379-0.429-0.719-0.734-1.02c-0.307-0.301-0.68-0.52-1.119-0.654
	c-0.441-0.135-0.967-0.202-1.578-0.202h-2.508V104.285z"/>
<path display="none" fill="#FFFFFF" d="M7.021,77.478V46.755h8.263v12.111h15.125V46.755h8.263v30.723h-8.263V64.78H15.285v12.698
	H7.021z"/>
<path display="none" fill="#FFFFFF" d="M46.186,77.478V46.755h8.263v30.723H46.186z"/>
<path display="none" fill="#FFFFFF" d="M60.181,62.019c0-5.61,1.236-9.646,3.708-12.11c2.472-2.464,6.676-3.697,12.614-3.697
	c1.869,0,3.98,0.106,6.335,0.317c2.355,0.211,4.253,0.427,5.694,0.646l2.131,0.351l-0.234,5.314
	c-4.613-0.375-8.691-0.563-12.233-0.563c-0.117,0-0.244,0-0.379,0c-3.582,0-6,0.65-7.255,1.948
	c-1.255,1.299-1.883,3.896-1.883,7.792c0,3.969,0.578,6.642,1.734,8.021c1.155,1.378,3.54,2.068,7.153,2.068l4.953-0.176v-5.282
	h-3.679v-5.479h11.825V76.99c-5.703,0.674-10.326,1.018-13.869,1.032c-6.171,0-10.482-1.301-12.935-3.903
	C61.407,71.517,60.181,67.484,60.181,62.019z"/>
<path display="none" fill="#FFFFFF" d="M96.688,77.478V46.755h8.263v12.111h15.124V46.755h8.264v30.723h-8.264V64.78H104.95v12.698
	H96.688z"/>
<path display="none" fill="#FFFFFF" d="M135.852,77.478V46.755h8.263v24.809h14.891v5.914H135.852z"/>
<path display="none" fill="#FFFFFF" d="M160.532,46.755h9.169l7.357,10.719l7.3-10.719h9.139l-12.264,17.633v13.089h-8.263V64.345
	L160.532,46.755z"/>
<path display="none" fill="#FFFFFF" d="M6.905,85.304c0-3.197,1.302-5.65,3.905-7.359c2.603-1.709,6.18-2.564,10.729-2.564
	c1.354,0,3.072,0.115,5.152,0.346c2.08,0.229,3.826,0.445,5.239,0.65l2.09,0.332l-0.636,5.99c-5.594-0.531-9.542-0.797-11.845-0.797
	c-4.34,0-6.51,1.102-6.51,3.307c0,1.061,0.54,1.885,1.62,2.473s3.352,1.33,6.816,2.232c4.435,1.189,7.442,2.473,9.022,3.85
	c1.581,1.375,2.371,3.51,2.371,6.404c0,3.326-1.307,5.871-3.919,7.639c-2.613,1.766-6.106,2.648-10.48,2.648
	c-1.355,0-3.068-0.115-5.139-0.344c-2.071-0.23-3.813-0.455-5.226-0.678l-2.119-0.355l0.838-5.988
	c4.917,0.563,8.78,0.844,11.587,0.844c2.238,0,3.853-0.277,4.846-0.832c0.992-0.557,1.488-1.477,1.488-2.764
	c0-1.061-0.496-1.898-1.488-2.51c-0.993-0.611-2.919-1.262-5.78-1.955c-4.654-1.125-7.911-2.453-9.771-3.98
	C7.835,90.363,6.905,88.167,6.905,85.304z"/>
<path display="none" fill="#FFFFFF" d="M35.304,82.501V75.98h29.817v6.521H54.376v27.354h-8.24V82.501H35.304z"/>
<path display="none" fill="#FFFFFF" d="M64.868,109.855l8.974-33.875h15.777l8.893,33.875h-8.194l-1.496-5.707H74.576l-1.504,5.707
	H64.868z M76.295,97.628h10.817l-4.043-15.416h-2.71L76.295,97.628z"/>
<path display="none" fill="#FFFFFF" d="M98.334,82.501V75.98h29.816v6.521h-10.744v27.354h-8.24V82.501H98.334z"/>
<path display="none" fill="#FFFFFF" d="M130.287,98.564V75.98h8.24v22.525c0,1.863,0.625,3.18,1.879,3.943
	c1.252,0.766,3.021,1.148,5.313,1.148c4.814,0,7.221-1.697,7.221-5.092V75.98h8.242v22.584c0,4.09-1.281,7.068-3.844,8.93
	s-6.432,2.793-11.604,2.793c-5.174,0-9.041-0.932-11.604-2.793S130.287,102.654,130.287,98.564z"/>
<path display="none" fill="#FFFFFF" d="M165.674,85.304c0-3.197,1.303-5.65,3.906-7.359s6.18-2.564,10.729-2.564
	c1.354,0,3.072,0.115,5.15,0.346c2.08,0.229,3.826,0.445,5.24,0.65l2.09,0.332l-0.637,5.99c-5.594-0.531-9.541-0.797-11.844-0.797
	c-4.34,0-6.51,1.102-6.51,3.307c0,1.061,0.539,1.885,1.619,2.473s3.352,1.33,6.816,2.232c4.434,1.189,7.441,2.473,9.021,3.85
	c1.582,1.375,2.371,3.51,2.371,6.404c0,3.326-1.307,5.871-3.92,7.639c-2.611,1.766-6.105,2.648-10.479,2.648
	c-1.355,0-3.068-0.115-5.141-0.344c-2.07-0.23-3.813-0.455-5.225-0.678l-2.119-0.355l0.838-5.988
	c4.918,0.563,8.779,0.844,11.588,0.844c2.238,0,3.852-0.277,4.846-0.832c0.992-0.557,1.488-1.477,1.488-2.764
	c0-1.061-0.496-1.898-1.488-2.51c-0.994-0.611-2.92-1.262-5.781-1.955c-4.654-1.125-7.91-2.453-9.77-3.98
	C166.604,90.363,165.674,88.167,165.674,85.304z"/>
<path display="none" fill="#FFFFFF" d="M7.157,71.03V46.695h10.021c3.136,0,5.439,0.634,6.909,1.903
	c1.469,1.269,2.204,3.327,2.204,6.174c0,3.146-1.259,5.459-3.778,6.94l3.648,9.317h-5.697L17.42,63.16h-5.011v7.871H7.157z
	 M12.409,58.544h4.862c2.461,0,3.693-1.234,3.693-3.703c0-2.354-1.256-3.531-3.767-3.531h-4.788V58.544z"/>
<path display="none" fill="#FFFFFF" d="M29.61,71.03V46.695h16.646v4.684H34.788v5.408h9.205v4.529h-9.205v5.029h11.469v4.685H29.61
	z"/>
<path display="none" fill="#FFFFFF" d="M49.744,71.03V46.695H66.39v4.684H54.921v6.992h9.205v4.616h-9.205v8.043H49.744z"/>
<path display="none" fill="#FFFFFF" d="M69.302,71.03V46.695h16.646v4.684H74.479v5.408h9.205v4.529h-9.205v5.029h11.469v4.685
	H69.302z"/>
<path display="none" fill="#FFFFFF" d="M89.435,71.03V46.695h10.021c3.136,0,5.439,0.634,6.909,1.903
	c1.469,1.269,2.204,3.327,2.204,6.174c0,3.146-1.26,5.459-3.778,6.94l3.648,9.317h-5.697l-3.043-7.871h-5.011v7.871H89.435z
	 M94.687,58.544h4.862c2.462,0,3.693-1.234,3.693-3.703c0-2.354-1.256-3.531-3.767-3.531h-4.788V58.544z"/>
<path display="none" fill="#FFFFFF" d="M111.889,71.03V46.695h16.646v4.684h-11.469v5.408h9.205v4.529h-9.205v5.029h11.469v4.685
	H111.889z"/>
<path display="none" fill="#FFFFFF" d="M132.021,71.03V46.695h8.26l7.256,18.204h0.574V46.695h5.252V71.03h-7.998l-7.516-18.204
	h-0.576V71.03H132.021z"/>
<path display="none" fill="#FFFFFF" d="M156.646,58.854c0-4.604,0.742-7.854,2.227-9.748c1.486-1.895,4.033-2.842,7.646-2.842
	c0.965,0,2.076,0.083,3.332,0.25c1.254,0.167,2.273,0.336,3.053,0.508l1.188,0.276l-0.148,4.271
	c-3.068-0.333-5.289-0.499-6.662-0.499c-1.398,0-2.457,0.207-3.174,0.62c-0.719,0.413-1.24,1.177-1.568,2.291
	s-0.492,2.738-0.492,4.874c0,3.077,0.346,5.147,1.039,6.208c0.693,1.063,2.146,1.593,4.361,1.593c0.557,0,1.379-0.046,2.469-0.138
	c1.088-0.092,2.029-0.184,2.82-0.275l1.207-0.121l0.111,4.375c-3.02,0.631-5.531,0.953-7.535,0.964
	c-3.822,0-6.424-0.981-7.803-2.945C157.336,66.552,156.646,63.332,156.646,58.854z"/>
<path display="none" fill="#FFFFFF" d="M177.188,71.03V46.695h16.646v4.684h-11.469v5.408h9.205v4.529h-9.205v5.029h11.469v4.685
	H177.188z"/>
<rect x="7.009" y="6.131" width="186.4" height="35.188"/>
<g>
	<path fill="#9F2063" d="M27.651,39.275c-8.574,0-15.55-6.976-15.55-15.55s6.976-15.55,15.55-15.55s15.55,6.976,15.55,15.55
		S36.225,39.275,27.651,39.275z"/>
	<path fill="#FFFFFF" d="M27.651,8.725c8.284,0,15,6.716,15,15s-6.716,15-15,15c-8.285,0-15-6.716-15-15S19.366,8.725,27.651,8.725
		 M27.651,7.625c-8.877,0-16.1,7.223-16.1,16.1s7.223,16.1,16.1,16.1s16.1-7.223,16.1-16.1S36.528,7.625,27.651,7.625L27.651,7.625z
		"/>
</g>
<path fill="#FFFFFF" d="M36.619,23.025L23.1,15.197c-0.531-0.307-1.283-0.131-1.491,0.4v0.001c-0.417,0.531-0.184,1.216,0.347,1.523
	l1.32,0.797v-0.342l13,7.499c0.293-0.066,0.59-0.308,0.752-0.517h0C37.333,23.934,37.149,23.332,36.619,23.025"/>
<path fill="#FFFFFF" d="M23.276,17.576l0.312,0.165v-1.587c0-0.611-0.469-1.074-1.08-1.074h0c-0.611,0-1.107,0.463-1.107,1.074
	v15.654c0,0.611,0.496,1.188,1.107,1.188h0c0.328,0,0.559-0.222,0.768-0.45V17.576z"/>
<polygon fill="#FFFFFF" points="25.046,24.778 25.046,31.636 30.986,28.207 "/>
<polygon fill="#FFFFFF" points="32.629,27.241 34.691,26.059 25.046,20.482 25.046,22.846 "/>
<g>
	<path fill="#FFFFFF" d="M90.066,10.961c-0.89,1.293-1.339,3.12-1.339,5.422v18.218h4.182V20.849h3.852v-4.071h-3.852v-1.727
		c0-1.478,0.757-2.234,2.26-2.234h1.592V8.637h-1.63C92.829,8.637,91.126,9.421,90.066,10.961z"/>
</g>
<g>
	<path fill="#FFFFFF" d="M107.178,16.333c-2.654,0-4.935,0.955-6.595,2.763c-1.574,1.711-2.441,4.061-2.441,6.616
		c0,2.554,0.867,4.9,2.441,6.613c1.66,1.807,3.941,2.764,6.595,2.764c2.653,0,4.934-0.957,6.595-2.764
		c1.573-1.712,2.439-4.059,2.439-6.613c0-2.555-0.866-4.904-2.439-6.616C112.111,17.288,109.831,16.333,107.178,16.333z
		 M107.178,30.875c-2.976,0-4.823-1.979-4.823-5.164c0-3.187,1.847-5.166,4.823-5.166c2.974,0,4.821,1.979,4.821,5.166
		C111.999,28.896,110.151,30.875,107.178,30.875z"/>
</g>
<g>
	<path fill="#FFFFFF" d="M141.76,27.576c0,2.097-1.104,3.299-3.08,3.299c-1.976,0-3.08-1.203-3.08-3.299V16.778h-4.182v12.473
		c0,3.654,2.732,5.836,7.317,5.836c4.584,0,7.316-2.183,7.316-5.836V16.778h-4.292V27.576z"/>
</g>
<g>
	<path fill="#FFFFFF" d="M171.979,17.831c-1.205-0.966-2.871-1.498-4.676-1.498c-2.217,0-4.104,0.908-5.609,2.699l-0.247,0.294
		l-0.252-0.289c-1.421-1.618-3.536-2.705-5.27-2.705c-2.2,0-4.023,0.519-5.279,1.5c-1.302,1.018-1.954,2.477-1.954,4.336v12.432h4.4
		V23.845c0-2.127,1.095-3.299,3.026-3.299s3.026,1.172,3.026,3.299v10.757h4.4V22.504l0.035-0.074
		c0.927-1.702,2.369-1.885,2.941-1.885c0,0,0.052-0.001,0.084-0.001c1.874,0,2.881,1.172,2.881,3.3v10.757h4.511V22.169
		C173.998,20.384,173.294,18.884,171.979,17.831z"/>
</g>
<g>
	<path fill="#FFFFFF" d="M183.796,23.958c-1.516-0.729-2.61-1.245-2.61-2.071c0-1.168,1.126-1.147,1.549-1.147h5.347v-3.96h-5.575
		c-1.652,0-3.036,0.406-4.004,1.16c-1.115,0.871-1.68,2.21-1.68,3.968c0,2.491,2.385,3.712,4.489,4.784
		c1.595,0.813,2.972,1.521,2.972,2.689c0,0.937-0.855,1.371-1.701,1.371h-5.943v3.851h6.477c1.711,0,3.171-0.452,4.222-1.337
		c1.106-0.933,1.691-2.282,1.691-3.933C189.028,26.467,186.004,25.018,183.796,23.958z"/>
</g>
<g>
	<path fill="#FFFFFF" d="M78.329,29.102h-0.001l-0.272,0.99h-0.052l-0.265-0.99l0,0l-3.084-12.323h-4.707l4.368,14.89
		c0.684,2.392,1.772,3.42,3.642,3.42c2.282,0,3.1-1.65,3.644-3.429l4.625-14.88h-4.776L78.329,29.102z"/>
</g>
<g>
	<path fill="#FFFFFF" d="M125.362,17.365L125.362,17.365c-0.001,0.001-0.002,0.002-0.003,0.002
		c-0.378,0.259-0.654,0.523-0.826,0.708c-1.066,1.042-1.63,2.121-1.683,2.225h-0.014v-3.521h-3.962v17.823h4.512V25.9
		c0-2.929,1.755-4.831,4.407-4.831h0.874v-4.51l-0.229-0.021C127.086,16.441,126.054,16.893,125.362,17.365z"/>
</g>
<g>
	<path fill="#FFFFFF" d="M66.39,18.6c-1.595-1.48-3.806-2.262-6.416-2.262c-2.414,0-4.617,0.929-6.203,2.618
		c-1.629,1.735-2.528,4.203-2.528,6.95c0,2.392,0.776,4.594,2.19,6.201c1.542,1.754,3.72,2.683,6.305,2.683
		c0.925,0,2.37-0.296,3.25-0.504l0.013-4.374c-0.771,0.271-2.032,0.589-2.958,0.589c-2.619,0-4.586-2.057-4.586-4.783
		c0-2.898,1.954-5.166,4.443-5.166c2.837,0,4.674,1.563,4.674,3.983v10.073h4.181V24.306C68.756,22.018,67.946,20.044,66.39,18.6z"
		/>
</g>
</svg>
